<?xml version="1.0" standalone="no"?>
<!DOCTYPE svg PUBLIC "-//W3C//DTD SVG 20010904//EN"
 "http://www.w3.org/TR/2001/REC-SVG-20010904/DTD/svg10.dtd">
<svg version="1.0" xmlns="http://www.w3.org/2000/svg"
 width="700.000000pt" height="700.000000pt" viewBox="0 0 700.000000 700.000000"
 preserveAspectRatio="xMidYMid meet">
<metadata>
Created by potrace 1.14, written by Peter Selinger 2001-2017
</metadata>
<g transform="translate(0.000000,700.000000) scale(0.100000,-0.100000)"
fill="#000000" stroke="none">
<path d="M2785 6994 c-294 -48 -529 -245 -612 -515 l-26 -85 -137 4 c-169 5
-258 -14 -405 -88 -260 -131 -431 -372 -466 -661 -9 -73 -9 -115 0 -175 10
-65 9 -79 -2 -86 -64 -35 -137 -103 -151 -139 -29 -72 8 -156 79 -179 51 -17
86 -5 184 61 l88 60 164 -3 164 -3 81 -140 81 -140 -28 -41 c-123 -181 -73
-438 111 -567 77 -53 142 -70 254 -65 73 3 102 10 148 32 78 37 148 103 187
175 l32 61 415 0 414 0 0 -970 0 -970 -209 0 -209 0 -78 137 c-96 167 -89 151
-71 171 29 32 65 117 77 180 21 118 -20 250 -106 343 -84 89 -173 129 -298
132 l-80 2 -107 185 c-75 130 -116 192 -139 208 l-33 22 -483 0 -482 0 -37 43
c-20 23 -55 72 -78 110 -65 105 -148 133 -221 76 -78 -62 -73 -140 18 -269 18
-25 35 -50 39 -56 4 -7 -10 -22 -33 -38 -64 -42 -177 -154 -238 -235 -154
-205 -233 -449 -233 -720 0 -153 17 -260 62 -397 89 -273 279 -507 522 -646
l58 -33 4 -110 c8 -274 104 -508 287 -700 128 -135 265 -224 429 -279 l73 -25
36 -84 c61 -141 128 -237 234 -333 323 -296 838 -323 1191 -63 61 45 172 159
210 217 15 23 30 42 34 42 3 0 22 -24 41 -53 55 -82 167 -188 259 -244 278
-172 621 -187 917 -43 196 95 332 232 425 429 28 58 54 112 57 119 4 7 34 22
66 33 436 147 726 544 726 993 l0 101 47 25 c180 95 380 305 480 505 122 243
157 549 94 826 -58 256 -220 501 -449 679 l-33 26 54 80 c109 162 157 320 164
534 4 122 2 161 -17 250 -26 125 -79 260 -146 367 -54 87 -202 242 -278 291
l-49 32 -2 167 c-1 146 -4 177 -24 238 -92 278 -298 484 -576 576 -61 20 -92
23 -239 24 l-169 2 -14 54 c-20 78 -75 190 -127 258 -215 279 -620 370 -936
211 -98 -50 -208 -143 -261 -222 -3 -5 -48 33 -100 84 -146 146 -286 206 -489
213 -58 2 -118 1 -135 -1z m196 -279 c119 -15 268 -124 323 -237 50 -104 56
-150 56 -445 l0 -273 -104 0 -104 0 -23 48 c-35 73 -132 164 -204 192 -244 93
-506 -41 -561 -287 -65 -292 192 -551 485 -489 124 26 218 97 276 208 l30 58
103 0 102 0 0 -360 0 -360 -415 0 -415 0 -22 48 c-30 64 -125 157 -191 187
-68 31 -158 49 -211 41 l-41 -6 -110 191 c-61 106 -121 199 -135 208 -19 13
-62 17 -215 21 l-190 5 -3 83 c-9 252 151 471 408 558 42 14 82 19 165 18 97
-1 120 -5 198 -33 76 -27 93 -30 126 -21 68 18 101 72 101 168 0 129 57 271
141 353 89 87 248 146 359 133 14 -2 46 -6 71 -9z m1215 4 c123 -22 247 -105
313 -207 46 -72 70 -152 79 -268 8 -96 12 -107 38 -135 49 -51 89 -55 191 -18
116 42 258 46 368 12 285 -90 458 -390 386 -673 -11 -46 -21 -95 -21 -108 0
-41 29 -87 71 -113 221 -133 319 -233 395 -405 l24 -54 -549 0 -548 0 -73 128
c-41 70 -78 135 -84 144 -7 13 -6 22 6 35 30 33 66 117 78 181 30 170 -67 355
-229 435 -56 27 -80 33 -160 37 l-95 5 -107 185 c-75 130 -116 192 -139 208
-32 21 -41 22 -268 22 l-234 0 3 123 c4 118 5 126 41 198 45 91 91 146 163
193 110 74 224 98 351 75z m-128 -1003 l83 -144 -30 -47 c-45 -70 -65 -140
-65 -220 1 -169 110 -326 266 -387 36 -14 81 -21 137 -23 l85 -2 103 -179 c56
-98 116 -191 133 -206 l30 -28 637 0 636 0 -7 -63 c-14 -144 -82 -308 -171
-419 l-47 -58 -277 0 c-273 0 -279 0 -312 -23 -25 -16 -63 -73 -141 -207
l-107 -185 -93 -5 c-80 -4 -103 -10 -163 -39 -82 -41 -153 -110 -187 -180
l-23 -50 -457 -1 -458 0 0 204 0 205 198 3 c183 3 199 5 227 25 20 14 77 103
165 255 112 194 135 240 135 274 0 34 -21 77 -129 265 -70 123 -141 238 -157
254 l-29 30 -205 3 -205 3 0 545 0 544 173 0 173 0 82 -144z m-1261 34 c25 0
73 -53 83 -91 43 -160 -195 -239 -249 -83 -18 52 -8 104 26 138 29 29 77 47
108 40 11 -2 25 -4 32 -4z m1719 -329 c126 -57 79 -251 -61 -251 -140 0 -187
194 -61 251 23 10 50 19 61 19 11 0 38 -9 61 -19z m-2331 -665 c106 -44 97
-207 -13 -246 -37 -13 -47 -13 -84 0 -80 28 -113 124 -68 198 34 55 100 75
165 48z m1790 -392 c43 -75 78 -142 78 -148 0 -6 -34 -69 -75 -141 l-76 -130
-136 -3 -136 -3 0 281 0 280 133 0 133 0 79 -136z m-1917 -838 l82 -144 -29
-44 c-44 -66 -64 -133 -65 -218 0 -91 21 -158 75 -240 75 -112 186 -171 328
-175 l84 -2 103 -178 c56 -98 114 -189 127 -203 36 -35 84 -41 350 -42 l237 0
0 -707 c0 -795 0 -788 -71 -932 -29 -60 -62 -105 -114 -160 -134 -139 -280
-203 -470 -205 -76 0 -130 5 -174 17 -233 63 -417 248 -476 477 -29 110 -47
125 -210 166 -85 21 -192 75 -272 137 -174 133 -293 373 -293 587 l0 60 454 0
455 0 54 -92 c30 -51 67 -116 83 -144 l28 -51 -26 -41 c-137 -206 -56 -495
169 -600 52 -24 69 -27 173 -27 104 0 121 3 172 27 116 54 203 167 228 296 45
227 -109 446 -340 483 -35 5 -80 7 -100 4 l-35 -6 -110 191 c-79 138 -119 197
-141 211 -30 18 -55 19 -593 19 l-562 0 -52 26 c-228 116 -400 323 -471 568
-40 136 -49 126 113 126 l140 0 32 -60 c39 -74 112 -143 187 -178 119 -55 296
-38 407 38 96 66 162 180 172 297 22 268 -194 472 -468 442 -119 -13 -248
-104 -303 -214 l-28 -55 -140 0 -140 0 6 45 c16 104 92 278 161 371 75 99 171
186 275 247 l45 27 430 0 431 0 82 -144z m3883 95 c102 -67 158 -119 228 -212
72 -94 120 -191 157 -314 24 -80 27 -107 28 -240 1 -82 -2 -162 -7 -177 l-7
-28 -483 0 c-531 0 -524 1 -571 -63 -20 -27 -21 -44 -24 -264 -2 -159 1 -245
8 -263 19 -45 55 -72 254 -185 l189 -109 -6 -110 c-8 -154 -44 -272 -119 -388
-82 -130 -246 -269 -355 -302 l-23 -7 0 171 c0 105 -4 180 -11 193 -6 12 -121
132 -255 267 l-244 245 17 45 c12 30 17 76 18 136 0 84 -2 95 -37 165 -46 93
-114 162 -198 203 -82 39 -207 48 -292 21 -107 -35 -202 -116 -248 -211 l-22
-44 -154 0 -154 0 0 415 0 415 455 0 455 0 26 -52 c14 -28 49 -74 78 -103 218
-218 576 -130 676 166 41 119 20 254 -56 370 -16 25 -16 27 66 167 l82 142
228 0 227 0 74 -49z m-3414 -396 c33 -22 63 -74 63 -109 0 -41 -38 -103 -76
-121 -128 -60 -249 89 -162 200 42 54 118 67 175 30z m2479 0 c56 -37 76 -125
40 -180 -93 -143 -303 -24 -230 130 33 70 124 94 190 50z m-3651 -259 c106
-44 97 -207 -13 -246 -154 -53 -248 181 -98 246 40 17 69 17 111 0z m4844
-643 c-72 -106 -201 -223 -310 -283 l-50 -27 -150 86 -149 86 0 92 0 93 345 0
346 0 -32 -47z m-1793 -200 c78 -50 69 -184 -15 -228 -69 -35 -148 -8 -182 61
-60 125 80 244 197 167z m-455 -284 c21 -51 85 -126 142 -164 105 -71 239 -93
355 -56 l60 18 216 -216 216 -216 0 -201 c0 -154 -4 -213 -16 -255 -73 -247
-308 -444 -561 -468 -281 -27 -541 115 -663 363 -68 136 -70 158 -70 724 l0
502 154 0 154 0 13 -31z m-1236 -553 c106 -44 97 -207 -13 -246 -37 -13 -47
-13 -84 0 -80 28 -113 124 -68 198 34 55 100 75 165 48z"/>
<path d="M756 4800 c-75 -23 -119 -117 -85 -183 48 -94 154 -110 225 -36 25
26 29 38 29 89 0 51 -4 63 -29 89 -17 17 -46 36 -65 41 -41 11 -36 11 -75 0z"/>
</g>
</svg>
